<svg width="1584" height="396" viewBox="0 0 1584 396" fill="none" xmlns="http://www.w3.org/2000/svg">
<rect width="1584" height="396" fill="#F5F5F5"/>
<g id="Awesome banner" clip-path="url(#clip0_0_1)">
<rect width="1584" height="396" fill="url(#paint0_linear_0_1)"/>
<ellipse id="Ellipse 2" cx="323" cy="64" rx="285" ry="288" fill="url(#paint1_linear_0_1)" fill-opacity="0.1"/>
<g id="copyright">
<path d="M75.95 334.52L72.30 334.52L72.30 311.16L77.20 311.16L83.70 330.04Q83.60 329.02 83.50 327.62Q83.41 326.23 83.33 324.79Q83.25 323.35 83.25 322.23L83.25 311.16L86.90 311.16L86.90 334.52L82 334.52L75.57 315.64Q75.63 316.57 75.73 317.88Q75.82 319.19 75.89 320.57Q75.95 321.94 75.95 323.10L75.95 334.52M98.80 334.84Q96.46 334.84 94.67 333.96Q92.88 333.08 91.89 331.53Q90.90 329.98 90.90 327.93Q90.90 325.78 92.13 324.18Q93.36 322.58 95.34 322.17L95.34 322.10Q93.65 321.75 92.61 320.38Q91.57 319 91.57 317.11Q91.57 315.26 92.48 313.85Q93.39 312.44 95.02 311.64Q96.66 310.84 98.80 310.84Q100.94 310.84 102.59 311.64Q104.24 312.44 105.15 313.85Q106.06 315.26 106.06 317.11Q106.06 319 105.01 320.38Q103.95 321.75 102.26 322.10L102.26 322.17Q104.24 322.58 105.47 324.18Q106.70 325.78 106.70 327.93Q106.70 329.98 105.71 331.53Q104.72 333.08 102.93 333.96Q101.14 334.84 98.80 334.84M98.80 320.73Q100.30 320.73 101.23 319.82Q102.16 318.90 102.16 317.46Q102.16 315.99 101.23 315.08Q100.30 314.17 98.80 314.17Q97.30 314.17 96.37 315.08Q95.44 315.99 95.44 317.46Q95.44 318.90 96.37 319.82Q97.30 320.73 98.80 320.73M98.80 331.45Q100.56 331.45 101.68 330.42Q102.80 329.40 102.80 327.74Q102.80 326.04 101.68 325Q100.56 323.96 98.80 323.96Q97.04 323.96 95.92 325Q94.80 326.04 94.80 327.74Q94.80 329.40 95.92 330.42Q97.04 331.45 98.80 331.45M114.35 334.52L110.70 334.52L110.70 311.16L115.60 311.16L122.10 330.04Q122 329.02 121.90 327.62Q121.81 326.23 121.73 324.79Q121.65 323.35 121.65 322.23L121.65 311.16L125.30 311.16L125.30 334.52L120.40 334.52L113.97 315.64Q114.03 316.57 114.13 317.88Q114.22 319.19 114.29 320.57Q114.35 321.94 114.35 323.10" fill="white" fill-opacity="0.9"/>
<path d="M161.48 325.24L151.24 325.24L151.24 322.68L161.48 322.68" fill="white" fill-opacity="0.9"/>
<path d="M195.02 334.84Q191.82 334.84 189.96 333.05Q188.11 331.26 188.11 328.12L188.11 317.56Q188.11 314.42 189.96 312.63Q191.82 310.84 195.02 310.84Q198.15 310.84 200.01 312.65Q201.87 314.46 201.87 317.56L198.99 317.56Q198.99 315.58 197.95 314.50Q196.91 313.43 195.02 313.43Q193.13 313.43 192.06 314.50Q190.99 315.58 190.99 317.56L190.99 328.12Q190.99 330.10 192.06 331.18Q193.13 332.25 195.02 332.25Q196.91 332.25 197.95 331.18Q198.99 330.10 198.99 328.12L201.87 328.12Q201.87 331.22 200.01 333.03Q198.15 334.84 195.02 334.84" fill="white" fill-opacity="0.9"/>
<path d="M213.96 334.84Q210.83 334.84 209 333.02Q207.18 331.19 207.18 327.80L207.18 317.88Q207.18 314.49 209 312.66Q210.83 310.84 213.96 310.84Q217.10 310.84 218.92 312.66Q220.75 314.49 220.75 317.85L220.75 327.80Q220.75 331.19 218.92 333.02Q217.10 334.84 213.96 334.84M213.96 332.25Q215.85 332.25 216.86 331.18Q217.87 330.10 217.87 328.12L217.87 317.56Q217.87 315.58 216.86 314.50Q215.85 313.43 213.96 313.43Q212.11 313.43 211.08 314.50Q210.06 315.58 210.06 317.56L210.06 328.12Q210.06 330.10 211.08 331.18Q212.11 332.25 213.96 332.25" fill="white" fill-opacity="0.9"/>
<path d="M228.65 334.52L225.87 334.52L225.87 311.16L230.12 311.16L233.10 321.27L236.20 311.16L240.46 311.16L240.46 334.52L237.67 334.52L237.67 323.48Q237.67 321.91 237.72 319.88Q237.77 317.85 237.87 315.77Q237.96 313.69 238.09 312.02L234.31 324.09L231.82 324.09L228.20 312.31Q228.46 314.68 228.55 317.50Q228.65 320.31 228.65 323.48" fill="white" fill-opacity="0.9"/>
<path d="M247.85 334.52L245.07 334.52L245.07 311.16L249.32 311.16L252.30 321.27L255.40 311.16L259.66 311.16L259.66 334.52L256.87 334.52L256.87 323.48Q256.87 321.91 256.92 319.88Q256.97 317.85 257.07 315.77Q257.16 313.69 257.29 312.02L253.51 324.09L251.02 324.09L247.40 312.31Q247.66 314.68 247.75 317.50Q247.85 320.31 247.85 323.48" fill="white" fill-opacity="0.9"/>
<path d="M271.56 334.84Q268.30 334.84 266.57 333.03Q264.84 331.22 264.84 328.12L264.84 311.16L267.72 311.16L267.72 328.12Q267.72 330.04 268.67 331.16Q269.61 332.28 271.56 332.28Q273.48 332.28 274.44 331.16Q275.40 330.04 275.40 328.12L275.40 311.16L278.28 311.16L278.28 328.12Q278.28 331.26 276.57 333.05Q274.86 334.84 271.56 334.84" fill="white" fill-opacity="0.9"/>
<path d="M286.83 334.52L284.04 334.52L284.04 311.16L287.88 311.16L295.02 331.16Q294.95 330.36 294.87 329.19Q294.79 328.02 294.75 326.73Q294.70 325.43 294.70 324.28L294.70 311.16L297.48 311.16L297.48 334.52L293.64 334.52L286.54 314.52Q286.60 315.29 286.67 316.46Q286.73 317.62 286.78 318.92Q286.83 320.22 286.83 321.40" fill="white" fill-opacity="0.9"/>
<path d="M316.20 334.52L303.72 334.52L303.72 331.90L308.49 331.90L308.49 313.78L303.72 313.78L303.72 311.16L316.20 311.16L316.20 313.78L311.43 313.78L311.43 331.90L316.20 331.90" fill="white" fill-opacity="0.9"/>
<path d="M330.60 334.52L327.72 334.52L327.72 313.78L321.32 313.78L321.32 311.16L337 311.16L337 313.78L330.60 313.78" fill="white" fill-opacity="0.9"/>
<path d="M349.80 334.52L346.92 334.52L346.92 325.78L339.88 311.16L342.95 311.16L347.50 320.76Q347.88 321.56 348.11 322.12Q348.33 322.68 348.39 322.94Q348.46 322.68 348.70 322.12Q348.94 321.56 349.32 320.76L353.87 311.16L356.84 311.16L349.80 325.78" fill="white" fill-opacity="0.9"/>
<path d="M382.83 334.52L380.04 334.52L380.04 311.16L383.88 311.16L391.02 331.16Q390.95 330.36 390.87 329.19Q390.79 328.02 390.75 326.73Q390.70 325.43 390.70 324.28L390.70 311.16L393.48 311.16L393.48 334.52L389.64 334.52L382.54 314.52Q382.60 315.29 382.67 316.46Q382.73 317.62 382.78 318.92Q382.83 320.22 382.83 321.40" fill="white" fill-opacity="0.9"/>
<path d="M405.96 334.84Q402.83 334.84 401 333.02Q399.18 331.19 399.18 327.80L399.18 317.88Q399.18 314.49 401 312.66Q402.83 310.84 405.96 310.84Q409.10 310.84 410.92 312.66Q412.75 314.49 412.75 317.85L412.75 327.80Q412.75 331.19 410.92 333.02Q409.10 334.84 405.96 334.84M405.96 332.25Q407.85 332.25 408.86 331.18Q409.87 330.10 409.87 328.12L409.87 317.56Q409.87 315.58 408.86 314.50Q407.85 313.43 405.96 313.43Q404.11 313.43 403.08 314.50Q402.06 315.58 402.06 317.56L402.06 328.12Q402.06 330.10 403.08 331.18Q404.11 332.25 405.96 332.25" fill="white" fill-opacity="0.9"/>
<path d="M424.55 334.52L418.51 334.52L418.51 311.16L424.55 311.16Q426.83 311.16 428.47 312.02Q430.12 312.89 431.03 314.46Q431.95 316.02 431.95 318.17L431.95 327.48Q431.95 329.62 431.03 331.21Q430.12 332.79 428.47 333.66Q426.83 334.52 424.55 334.52M421.39 313.72L421.39 331.96L424.55 331.96Q426.67 331.96 427.87 330.78Q429.07 329.59 429.07 327.48L429.07 318.17Q429.07 316.09 427.87 314.90Q426.67 313.72 424.55 313.72" fill="white" fill-opacity="0.9"/>
<path d="M451.40 334.52L437.96 334.52L437.96 311.16L451.40 311.16L451.40 313.78L440.81 313.78L440.81 321.02L450.28 321.02L450.28 323.58L440.81 323.58L440.81 331.90L451.40 331.90" fill="white" fill-opacity="0.9"/>
<path d="M463.69 334.84Q460.30 334.84 458.28 333.05Q456.27 331.26 456.27 328.12L459.15 328.12Q459.15 330.07 460.39 331.18Q461.64 332.28 463.69 332.28Q465.67 332.28 466.86 331.13Q468.04 329.98 468.04 328.12Q468.04 326.71 467.29 325.67Q466.54 324.63 465.13 324.25L461.58 323.26Q459.37 322.62 458.11 320.97Q456.84 319.32 456.84 317.08Q456.84 315.22 457.67 313.82Q458.51 312.41 460.01 311.62Q461.51 310.84 463.47 310.84Q465.45 310.84 466.97 311.62Q468.49 312.41 469.35 313.80Q470.22 315.19 470.22 317.02L467.34 317.02Q467.34 315.42 466.25 314.41Q465.16 313.40 463.47 313.40Q461.77 313.40 460.71 314.41Q459.66 315.42 459.66 317.02Q459.66 318.30 460.35 319.21Q461.03 320.12 462.28 320.47L465.93 321.50Q468.27 322.14 469.56 323.91Q470.86 325.69 470.86 328.12Q470.86 331.19 468.91 333.02Q466.95 334.84 463.69 334.84" fill="white" fill-opacity="0.9"/>
</g>
<path d="M81.88 197.64L72.52 197.64L72.52 195.67L76.10 195.67L76.10 182.09L72.52 182.09L72.52 180.12L81.88 180.12L81.88 182.09L78.30 182.09L78.30 195.67L81.88 195.67" fill="white" fill-opacity="0.7"/>
<path d="M90.83 197.88Q88.86 197.88 87.68 196.56Q86.49 195.24 86.49 192.98L86.49 189.12Q86.49 186.84 87.66 185.52Q88.84 184.20 90.83 184.20Q92.32 184.20 93.29 184.94Q94.26 185.69 94.46 186.96L94.48 186.96L94.43 183.96L94.43 180.12L96.59 180.12L96.59 197.64L94.43 197.64L94.43 195.12L94.41 195.12Q94.24 196.42 93.28 197.15Q92.32 197.88 90.83 197.88M91.55 196.01Q92.90 196.01 93.66 195.17Q94.43 194.33 94.43 192.84L94.43 189.24Q94.43 187.75 93.66 186.91Q92.90 186.07 91.55 186.07Q90.18 186.07 89.42 186.78Q88.65 187.49 88.65 189.12L88.65 192.96Q88.65 194.57 89.42 195.29Q90.18 196.01 91.55 196.01" fill="white" fill-opacity="0.7"/>
<path d="MNaN 197.88Q103.67 197.88 102.24 196.48Q100.82 195.07 100.82 192.60L100.82 189.48Q100.82 187.01 102.24 185.60Q103.67 184.20 NaN 184.20Q107.56 184.20 108.72 184.82Q109.89 185.45 110.54 186.58Q111.18 187.70 111.18 189.24L111.18 191.59L102.93 191.59L102.93 192.84Q102.93 194.30 103.77 195.16Q104.61 196.01 NaN 196.01Q107.20 196.01 107.98 195.54Q108.76 195.07 108.93 194.28L111.09 194.28Q110.87 195.94 109.48 196.91Q108.09 197.88 NaN 197.88M102.93 189.24L102.93 189.91L109.07 189.91L109.07 189.24Q109.07 187.68 108.27 186.83Q107.46 185.98 NaN 185.98Q104.54 185.98 103.73 186.83Q102.93 187.68 102.93 189.24" fill="white" fill-opacity="0.7"/>
<path d="M117.57 197.64L115.41 197.64L115.41 184.44L117.57 184.44L117.57 186.96L117.59 186.96Q117.76 185.64 118.67 184.92Q119.58 184.20 121.10 184.20Q123.09 184.20 124.26 185.42Q125.44 186.65 125.44 188.76L125.44 197.64L123.28 197.64L123.28 189.14Q123.28 187.63 122.52 186.83Q121.77 186.02 120.47 186.02Q119.13 186.02 118.35 186.86Q117.57 187.70 117.57 189.24" fill="white" fill-opacity="0.7"/>
<path d="M139.96 197.64L136.12 197.64Q134.49 197.64 133.50 196.69Q132.52 195.74 132.52 194.16L132.52 186.41L128.73 186.41L128.73 184.44L132.52 184.44L132.52 180.72L134.68 180.72L134.68 184.44L140.08 184.44L140.08 186.41L134.68 186.41L134.68 194.16Q134.68 194.83 135.08 195.25Q135.47 195.67 136.12 195.67L139.96 195.67" fill="white" fill-opacity="0.7"/>
<path d="M155.32 197.64L144.04 197.64L144.04 195.67L148.72 195.67L148.72 186.41L144.52 186.41L144.52 184.44L150.88 184.44L150.88 195.67L155.32 195.67L155.32 197.64M149.56 182.06Q148.77 182.06 148.31 181.66Q147.86 181.25 147.86 180.55Q147.86 179.83 148.31 179.41Q148.77 178.99 149.56 178.99Q150.35 178.99 150.81 179.41Q151.26 179.83 151.26 180.55Q151.26 181.25 150.81 181.66Q150.35 182.06 149.56 182.06" fill="white" fill-opacity="0.7"/>
<path d="M163.72 197.64L161.56 197.64L161.56 188.21L157.72 188.21L157.72 186.24L161.56 186.24L161.56 183.48Q161.56 181.92 162.54 181.02Q163.53 180.12 165.26 180.12L169.12 180.12L169.12 182.09L165.26 182.09Q163.72 182.09 163.72 183.48L163.72 186.24L169.12 186.24L169.12 188.21L163.72 188.21" fill="white" fill-opacity="0.7"/>
<path d="M184.12 197.64L172.84 197.64L172.84 195.67L177.52 195.67L177.52 186.41L173.32 186.41L173.32 184.44L179.68 184.44L179.68 195.67L184.12 195.67L184.12 197.64M178.36 182.06Q177.57 182.06 177.11 181.66Q176.66 181.25 176.66 180.55Q176.66 179.83 177.11 179.41Q177.57 178.99 178.36 178.99Q179.15 178.99 179.61 179.41Q180.06 179.83 180.06 180.55Q180.06 181.25 179.61 181.66Q179.15 182.06 178.36 182.06" fill="white" fill-opacity="0.7"/>
<path d="M192.40 197.88Q190.07 197.88 188.64 196.48Q187.22 195.07 187.22 192.60L187.22 189.48Q187.22 187.01 188.64 185.60Q190.07 184.20 192.40 184.20Q193.96 184.20 195.12 184.82Q196.29 185.45 196.94 186.58Q197.58 187.70 197.58 189.24L197.58 191.59L189.33 191.59L189.33 192.84Q189.33 194.30 190.17 195.16Q191.01 196.01 192.40 196.01Q193.60 196.01 194.38 195.54Q195.16 195.07 195.33 194.28L197.49 194.28Q197.27 195.94 195.88 196.91Q194.49 197.88 192.40 197.88M189.33 189.24L189.33 189.91L195.47 189.91L195.47 189.24Q195.47 187.68 194.67 186.83Q193.86 185.98 192.40 185.98Q190.94 185.98 190.13 186.83Q189.33 187.68 189.33 189.24" fill="white" fill-opacity="0.7"/>
<path d="M207.33 197.83L206.27 197.83Q204.06 197.83 202.85 196.84Q201.64 195.84 201.64 194.02L203.80 194.02Q203.80 194.93 204.45 195.44Q205.10 195.96 206.27 195.96L207.33 195.96Q208.53 195.96 209.19 195.43Q209.85 194.90 209.85 193.94Q209.85 192.24 208.29 192.02L204.64 191.50Q203.30 191.30 202.55 190.38Q201.81 189.46 201.81 187.94Q201.81 186.22 203 185.23Q204.18 184.25 206.27 184.25L207.33 184.25Q209.25 184.25 210.46 185.20Q211.67 186.14 211.77 187.68L209.58 187.68Q209.54 186.98 208.92 186.53Q208.31 186.07 207.33 186.07L206.27 186.07Q205.17 186.07 204.54 186.58Q203.92 187.08 203.92 187.94Q203.92 189.34 205.19 189.53L208.60 190.01Q211.96 190.49 211.96 193.94Q211.96 195.79 210.75 196.81Q209.54 197.83 207.33 197.83" fill="white" fill-opacity="0.7"/>
<path d="M232.77 197.64L230.61 197.64L230.61 180.12L232.77 180.12L232.77 186.96L232.79 186.96Q232.96 185.64 233.87 184.92Q234.78 184.20 236.30 184.20Q238.29 184.20 239.46 185.42Q240.64 186.65 240.64 188.76L240.64 197.64L238.48 197.64L238.48 189.12Q238.48 187.63 237.72 186.83Q236.97 186.02 235.67 186.02Q234.33 186.02 233.55 186.86Q232.77 187.70 232.77 189.24" fill="white" fill-opacity="0.7"/>
<path d="M256.12 197.64L244.84 197.64L244.84 195.67L249.52 195.67L249.52 186.41L245.32 186.41L245.32 184.44L251.68 184.44L251.68 195.67L256.12 195.67L256.12 197.64M250.36 182.06Q249.57 182.06 249.11 181.66Q248.66 181.25 248.66 180.55Q248.66 179.83 249.11 179.41Q249.57 178.99 250.36 178.99Q251.15 178.99 251.61 179.41Q252.06 179.83 252.06 180.55Q252.06 181.25 251.61 181.66Q251.15 182.06 250.36 182.06" fill="white" fill-opacity="0.7"/>
<path d="M264.76 201.96L261.06 201.96L261.06 199.99L264.78 199.99Q265.91 199.99 266.56 199.36Q267.21 198.72 267.21 197.64L267.21 196.44L267.26 194.28L267.18 194.28Q266.99 195.46 266.06 196.09Q265.12 196.73 263.70 196.73Q261.66 196.73 260.49 195.43Q259.31 194.14 259.31 191.88L259.31 189.10Q259.31 186.84 260.49 185.52Q261.66 184.20 263.70 184.20Q265.12 184.20 266.06 184.87Q266.99 185.54 267.18 186.72L267.23 186.72L267.23 184.44L269.37 184.44L269.37 197.64Q269.37 199.63 268.13 200.80Q266.90 201.96 264.76 201.96M264.35 194.93Q265.70 194.93 266.46 194.09Q267.23 193.25 267.23 191.76L267.23 189.24Q267.23 187.75 266.46 186.91Q265.70 186.07 264.35 186.07Q262.98 186.07 262.23 186.86Q261.47 187.66 261.47 189L261.47 192Q261.47 193.34 262.23 194.14Q262.98 194.93 264.35 194.93" fill="white" fill-opacity="0.7"/>
<path d="M275.97 197.64L273.81 197.64L273.81 180.12L275.97 180.12L275.97 186.96L275.99 186.96Q276.16 185.64 277.07 184.92Q277.98 184.20 279.50 184.20Q281.49 184.20 282.66 185.42Q283.84 186.65 283.84 188.76L283.84 197.64L281.68 197.64L281.68 189.12Q281.68 187.63 280.92 186.83Q280.17 186.02 278.87 186.02Q277.53 186.02 276.75 186.86Q275.97 187.70 275.97 189.24" fill="white" fill-opacity="0.7"/>
<path d="M297.04 190.68L289.36 190.68L289.36 188.76L297.04 188.76" fill="white" fill-opacity="0.7"/>
<path d="M305.25 197.64L303.09 197.64L303.09 184.44L305.25 184.44L305.25 186.96L305.30 186.96Q305.46 185.69 306.38 184.94Q307.29 184.20 308.82 184.20Q310.89 184.20 312 185.44Q313.12 186.67 313.12 188.95L313.12 190.08L310.96 190.08L310.96 188.95Q310.96 186.07 308.15 186.07Q306.74 186.07 305.99 186.89Q305.25 187.70 305.25 189.24" fill="white" fill-opacity="0.7"/>
<path d="M328.12 197.64L316.84 197.64L316.84 195.67L321.52 195.67L321.52 186.41L317.32 186.41L317.32 184.44L323.68 184.44L323.68 195.67L328.12 195.67L328.12 197.64M322.36 182.06Q321.57 182.06 321.11 181.66Q320.66 181.25 320.66 180.55Q320.66 179.83 321.11 179.41Q321.57 178.99 322.36 178.99Q323.15 178.99 323.61 179.41Q324.06 179.83 324.06 180.55Q324.06 181.25 323.61 181.66Q323.15 182.06 322.36 182.06" fill="white" fill-opacity="0.7"/>
<path d="M336.93 197.83L335.87 197.83Q333.66 197.83 332.45 196.84Q331.24 195.84 331.24 194.02L333.40 194.02Q333.40 194.93 334.05 195.44Q334.70 195.96 335.87 195.96L336.93 195.96Q338.13 195.96 338.79 195.43Q339.45 194.90 339.45 193.94Q339.45 192.24 337.89 192.02L334.24 191.50Q332.90 191.30 332.15 190.38Q331.41 189.46 331.41 187.94Q331.41 186.22 332.60 185.23Q333.78 184.25 335.87 184.25L336.93 184.25Q338.85 184.25 340.06 185.20Q341.27 186.14 341.37 187.68L339.18 187.68Q339.14 186.98 338.52 186.53Q337.91 186.07 336.93 186.07L335.87 186.07Q334.77 186.07 334.14 186.58Q333.52 187.08 333.52 187.94Q333.52 189.34 334.79 189.53L338.20 190.01Q341.56 190.49 341.56 193.94Q341.56 195.79 340.35 196.81Q339.14 197.83 336.93 197.83" fill="white" fill-opacity="0.7"/>
<path d="M348.09 197.64L345.93 197.64L345.93 180.12L348.09 180.12L348.09 189.89L350.61 189.89L354.30 184.44L356.78 184.44L352.53 190.73L357.02 197.64L354.50 197.64L350.66 191.76L348.09 191.76" fill="white" fill-opacity="0.7"/>
<path d="M375.86 197.64L373.84 197.64L373.84 184.44L375.71 184.44L375.71 186.19L375.76 186.19Q375.88 185.30 376.47 184.75Q377.06 184.20 377.97 184.20Q378.83 184.20 379.43 184.70Q380.03 185.21 380.30 186.07L380.32 186.07Q380.49 185.21 381.08 184.70Q381.66 184.20 382.58 184.20Q383.85 184.20 384.60 185.15Q385.36 186.10 385.36 187.61L385.36 197.64L383.34 197.64L383.34 187.58Q383.34 186.79 382.96 186.32Q382.58 185.86 381.90 185.86Q381.26 185.86 380.87 186.31Q380.49 186.77 380.49 187.56L380.49 197.64L378.71 197.64L378.71 187.58Q378.71 186.79 378.33 186.32Q377.94 185.86 377.30 185.86Q376.62 185.86 376.24 186.31Q375.86 186.77 375.86 187.56" fill="white" fill-opacity="0.7"/>
<path d="M394 197.88Q391.67 197.88 390.24 196.48Q388.82 195.07 388.82 192.60L388.82 189.48Q388.82 187.01 390.24 185.60Q391.67 184.20 394 184.20Q395.56 184.20 396.72 184.82Q397.89 185.45 398.54 186.58Q399.18 187.70 399.18 189.24L399.18 191.59L390.93 191.59L390.93 192.84Q390.93 194.30 391.77 195.16Q392.61 196.01 394 196.01Q395.20 196.01 395.98 195.54Q396.76 195.07 396.93 194.28L399.09 194.28Q398.87 195.94 397.48 196.91Q396.09 197.88 394 197.88M390.93 189.24L390.93 189.91L397.07 189.91L397.07 189.24Q397.07 187.68 396.27 186.83Q395.46 185.98 394 185.98Q392.54 185.98 391.73 186.83Q390.93 187.68 390.93 189.24" fill="white" fill-opacity="0.7"/>
<path d="M406.05 197.64L403.89 197.64L403.89 184.44L406.05 184.44L406.05 186.96L406.10 186.96Q406.26 185.69 407.18 184.94Q408.09 184.20 409.62 184.20Q411.69 184.20 412.80 185.44Q413.92 186.67 413.92 188.95L413.92 190.08L411.76 190.08L411.76 188.95Q411.76 186.07 408.95 186.07Q407.54 186.07 406.79 186.89Q406.05 187.70 406.05 189.24" fill="white" fill-opacity="0.7"/>
<path d="M422.99 197.88Q420.59 197.88 419.15 196.54Q417.71 195.19 417.71 192.84L417.71 189.24Q417.71 186.89 419.15 185.54Q420.59 184.20 422.99 184.20Q425.27 184.20 426.68 185.42Q428.08 186.65 428.15 188.76L425.99 188.76Q425.92 187.49 425.13 186.80Q424.34 186.12 422.99 186.12Q421.58 186.12 420.72 186.92Q419.87 187.73 419.87 189.22L419.87 192.84Q419.87 194.33 420.72 195.14Q421.58 195.96 422.99 195.96Q424.34 195.96 425.13 195.26Q425.92 194.57 425.99 193.32L428.15 193.32Q428.08 195.43 426.68 196.66Q425.27 197.88 422.99 197.88" fill="white" fill-opacity="0.7"/>
<path d="M434.37 197.64L432.21 197.64L432.21 180.12L434.37 180.12L434.37 186.96L434.39 186.96Q434.56 185.64 435.47 184.92Q436.38 184.20 437.90 184.20Q439.89 184.20 441.06 185.42Q442.24 186.65 442.24 188.76L442.24 197.64L440.08 197.64L440.08 189.12Q440.08 187.63 439.32 186.83Q438.57 186.02 437.27 186.02Q435.93 186.02 435.15 186.86Q434.37 187.70 434.37 189.24" fill="white" fill-opacity="0.7"/>
<path d="M450.45 197.88Q448.41 197.88 447.21 196.74Q446.01 195.60 446.01 193.75Q446.01 192.53 446.56 191.62Q447.11 190.70 448.10 190.19Q449.08 189.67 450.35 189.67L454.43 189.67L454.43 188.64Q454.43 186.07 451.62 186.07Q450.38 186.07 449.61 186.53Q448.84 186.98 448.79 187.80L446.63 187.80Q446.75 186.24 448.08 185.22Q449.42 184.20 451.62 184.20Q454.02 184.20 455.31 185.35Q456.59 186.50 456.59 188.57L456.59 197.64L454.46 197.64L454.46 195.24L454.41 195.24Q454.22 196.46 453.18 197.17Q452.15 197.88 450.45 197.88M450.98 196.06Q452.56 196.06 453.50 195.29Q454.43 194.52 454.43 193.20L454.43 191.35L450.59 191.35Q449.54 191.35 448.88 191.99Q448.22 192.62 448.22 193.68Q448.22 194.78 448.95 195.42Q449.68 196.06 450.98 196.06" fill="white" fill-opacity="0.7"/>
<path d="M463.17 197.64L461.01 197.64L461.01 184.44L463.17 184.44L463.17 186.96L463.19 186.96Q463.36 185.64 464.27 184.92Q465.18 184.20 466.70 184.20Q468.69 184.20 469.86 185.42Q471.04 186.65 471.04 188.76L471.04 197.64L468.88 197.64L468.88 189.14Q468.88 187.63 468.12 186.83Q467.37 186.02 466.07 186.02Q464.73 186.02 463.95 186.86Q463.17 187.70 463.17 189.24" fill="white" fill-opacity="0.7"/>
<path d="M485.56 197.64L481.72 197.64Q480.09 197.64 479.10 196.69Q478.12 195.74 478.12 194.16L478.12 186.41L474.33 186.41L474.33 184.44L478.12 184.44L478.12 180.72L480.28 180.72L480.28 184.44L485.68 184.44L485.68 186.41L480.28 186.41L480.28 194.16Q480.28 194.83 480.68 195.25Q481.07 195.67 481.72 195.67L485.56 195.67" fill="white" fill-opacity="0.7"/>
<path d="M495.33 197.83L494.27 197.83Q492.06 197.83 490.85 196.84Q489.64 195.84 489.64 194.02L491.80 194.02Q491.80 194.93 492.45 195.44Q493.10 195.96 494.27 195.96L495.33 195.96Q496.53 195.96 497.19 195.43Q497.85 194.90 497.85 193.94Q497.85 192.24 496.29 192.02L492.64 191.50Q491.30 191.30 490.55 190.38Q489.81 189.46 489.81 187.94Q489.81 186.22 491 185.23Q492.18 184.25 494.27 184.25L495.33 184.25Q497.25 184.25 498.46 185.20Q499.67 186.14 499.77 187.68L497.58 187.68Q497.54 186.98 496.92 186.53Q496.31 186.07 495.33 186.07L494.27 186.07Q493.17 186.07 492.54 186.58Q491.92 187.08 491.92 187.94Q491.92 189.34 493.19 189.53L496.60 190.01Q499.96 190.49 499.96 193.94Q499.96 195.79 498.75 196.81Q497.54 197.83 495.33 197.83" fill="white" fill-opacity="0.7"/>
<path d="M520.77 201.96L518.61 201.96L518.61 184.44L520.77 184.44L520.77 186.96L520.79 186.96Q520.96 185.66 521.92 184.93Q522.88 184.20 524.37 184.20Q526.36 184.20 527.54 185.51Q528.71 186.82 528.71 189.10L528.71 192.96Q528.71 195.24 527.54 196.56Q526.36 197.88 524.37 197.88Q522.88 197.88 521.92 197.14Q520.96 196.39 520.79 195.12L520.72 195.12L520.77 198.12L520.77 201.96M523.65 196.01Q525.02 196.01 525.78 195.29Q526.55 194.57 526.55 192.96L526.55 189.12Q526.55 187.49 525.78 186.78Q525.02 186.07 523.65 186.07Q522.33 186.07 521.55 186.91Q520.77 187.75 520.77 189.24L520.77 192.84Q520.77 194.33 521.55 195.17Q522.33 196.01 523.65 196.01" fill="white" fill-opacity="0.7"/>
<path d="M535.65 197.64L533.49 197.64L533.49 184.44L535.65 184.44L535.65 186.96L535.70 186.96Q535.86 185.69 536.78 184.94Q537.69 184.20 539.22 184.20Q541.29 184.20 542.40 185.44Q543.52 186.67 543.52 188.95L543.52 190.08L541.36 190.08L541.36 188.95Q541.36 186.07 538.55 186.07Q537.14 186.07 536.39 186.89Q535.65 187.70 535.65 189.24" fill="white" fill-opacity="0.7"/>
<path d="M552.40 197.88Q550.07 197.88 548.64 196.48Q547.22 195.07 547.22 192.60L547.22 189.48Q547.22 187.01 548.64 185.60Q550.07 184.20 552.40 184.20Q553.96 184.20 555.12 184.82Q556.29 185.45 556.94 186.58Q557.58 187.70 557.58 189.24L557.58 191.59L549.33 191.59L549.33 192.84Q549.33 194.30 550.17 195.16Q551.01 196.01 552.40 196.01Q553.60 196.01 554.38 195.54Q555.16 195.07 555.33 194.28L557.49 194.28Q557.27 195.94 555.88 196.91Q554.49 197.88 552.40 197.88M549.33 189.24L549.33 189.91L555.47 189.91L555.47 189.24Q555.47 187.68 554.67 186.83Q553.86 185.98 552.40 185.98Q550.94 185.98 550.13 186.83Q549.33 187.68 549.33 189.24" fill="white" fill-opacity="0.7"/>
<path d="M570.64 190.68L562.96 190.68L562.96 188.76L570.64 188.76" fill="white" fill-opacity="0.7"/>
<path d="M580.05 197.88Q578.01 197.88 576.81 196.74Q575.61 195.60 575.61 193.75Q575.61 192.53 576.16 191.62Q576.71 190.70 577.70 190.19Q578.68 189.67 579.95 189.67L584.03 189.67L584.03 188.64Q584.03 186.07 581.22 186.07Q579.98 186.07 579.21 186.53Q578.44 186.98 578.39 187.80L576.23 187.80Q576.35 186.24 577.68 185.22Q579.02 184.20 581.22 184.20Q583.62 184.20 584.91 185.35Q586.19 186.50 586.19 188.57L586.19 197.64L584.06 197.64L584.06 195.24L584.01 195.24Q583.82 196.46 582.78 197.17Q581.75 197.88 580.05 197.88M580.58 196.06Q582.16 196.06 583.10 195.29Q584.03 194.52 584.03 193.20L584.03 191.35L580.19 191.35Q579.14 191.35 578.48 191.99Q577.82 192.62 577.82 193.68Q577.82 194.78 578.55 195.42Q579.28 196.06 580.58 196.06" fill="white" fill-opacity="0.7"/>
<path d="M595.96 201.96L592.26 201.96L592.26 199.99L595.98 199.99Q597.11 199.99 597.76 199.36Q598.41 198.72 598.41 197.64L598.41 196.44L598.46 194.28L598.38 194.28Q598.19 195.46 597.26 196.09Q596.32 196.73 594.90 196.73Q592.86 196.73 591.69 195.43Q590.51 194.14 590.51 191.88L590.51 189.10Q590.51 186.84 591.69 185.52Q592.86 184.20 594.90 184.20Q596.32 184.20 597.26 184.87Q598.19 185.54 598.38 186.72L598.43 186.72L598.43 184.44L600.57 184.44L600.57 197.64Q600.57 199.63 599.33 200.80Q598.10 201.96 595.96 201.96M595.55 194.93Q596.90 194.93 597.66 194.09Q598.43 193.25 598.43 191.76L598.43 189.24Q598.43 187.75 597.66 186.91Q596.90 186.07 595.55 186.07Q594.18 186.07 593.43 186.86Q592.67 187.66 592.67 189L592.67 192Q592.67 193.34 593.43 194.14Q594.18 194.93 595.55 194.93" fill="white" fill-opacity="0.7"/>
<path d="M607.65 197.64L605.49 197.64L605.49 184.44L607.65 184.44L607.65 186.96L607.70 186.96Q607.86 185.69 608.78 184.94Q609.69 184.20 611.22 184.20Q613.29 184.20 614.40 185.44Q615.52 186.67 615.52 188.95L615.52 190.08L613.36 190.08L613.36 188.95Q613.36 186.07 610.55 186.07Q609.14 186.07 608.39 186.89Q607.65 187.70 607.65 189.24" fill="white" fill-opacity="0.7"/>
<path d="M624.40 197.88Q622.07 197.88 620.64 196.48Q619.22 195.07 619.22 192.60L619.22 189.48Q619.22 187.01 620.64 185.60Q622.07 184.20 624.40 184.20Q625.96 184.20 627.12 184.82Q628.29 185.45 628.94 186.58Q629.58 187.70 629.58 189.24L629.58 191.59L621.33 191.59L621.33 192.84Q621.33 194.30 622.17 195.16Q623.01 196.01 624.40 196.01Q625.60 196.01 626.38 195.54Q627.16 195.07 627.33 194.28L629.49 194.28Q629.27 195.94 627.88 196.91Q626.49 197.88 624.40 197.88M621.33 189.24L621.33 189.91L627.47 189.91L627.47 189.24Q627.47 187.68 626.67 186.83Q625.86 185.98 624.40 185.98Q622.94 185.98 622.13 186.83Q621.33 187.68 621.33 189.24" fill="white" fill-opacity="0.7"/>
<path d="M638.80 197.88Q636.47 197.88 635.04 196.48Q633.62 195.07 633.62 192.60L633.62 189.48Q633.62 187.01 635.04 185.60Q636.47 184.20 638.80 184.20Q640.36 184.20 641.52 184.82Q642.69 185.45 643.34 186.58Q643.98 187.70 643.98 189.24L643.98 191.59L635.73 191.59L635.73 192.84Q635.73 194.30 636.57 195.16Q637.41 196.01 638.80 196.01Q640 196.01 640.78 195.54Q641.56 195.07 641.73 194.28L643.89 194.28Q643.67 195.94 642.28 196.91Q640.89 197.88 638.80 197.88M635.73 189.24L635.73 189.91L641.87 189.91L641.87 189.24Q641.87 187.68 641.07 186.83Q640.26 185.98 638.80 185.98Q637.34 185.98 636.53 186.83Q635.73 187.68 635.73 189.24" fill="white" fill-opacity="0.7"/>
<path d="M649.46 197.64L647.44 197.64L647.44 184.44L649.31 184.44L649.31 186.19L649.36 186.19Q649.48 185.30 650.07 184.75Q650.66 184.20 651.57 184.20Q652.43 184.20 653.03 184.70Q653.63 185.21 653.90 186.07L653.92 186.07Q654.09 185.21 654.68 184.70Q655.26 184.20 656.18 184.20Q657.45 184.20 658.20 185.15Q658.96 186.10 658.96 187.61L658.96 197.64L656.94 197.64L656.94 187.58Q656.94 186.79 656.56 186.32Q656.18 185.86 655.50 185.86Q654.86 185.86 654.47 186.31Q654.09 186.77 654.09 187.56L654.09 197.64L652.31 197.64L652.31 187.58Q652.31 186.79 651.93 186.32Q651.54 185.86 650.90 185.86Q650.22 185.86 649.84 186.31Q649.46 186.77 649.46 187.56" fill="white" fill-opacity="0.7"/>
<path d="M667.60 197.88Q665.27 197.88 663.84 196.48Q662.42 195.07 662.42 192.60L662.42 189.48Q662.42 187.01 663.84 185.60Q665.27 184.20 667.60 184.20Q669.16 184.20 670.32 184.82Q671.49 185.45 672.14 186.58Q672.78 187.70 672.78 189.24L672.78 191.59L664.53 191.59L664.53 192.84Q664.53 194.30 665.37 195.16Q666.21 196.01 667.60 196.01Q668.80 196.01 669.58 195.54Q670.36 195.07 670.53 194.28L672.69 194.28Q672.47 195.94 671.08 196.91Q669.69 197.88 667.60 197.88M664.53 189.24L664.53 189.91L670.67 189.91L670.67 189.24Q670.67 187.68 669.87 186.83Q669.06 185.98 667.60 185.98Q666.14 185.98 665.33 186.83Q664.53 187.68 664.53 189.24" fill="white" fill-opacity="0.7"/>
<path d="M679.17 197.64L677.01 197.64L677.01 184.44L679.17 184.44L679.17 186.96L679.19 186.96Q679.36 185.64 680.27 184.92Q681.18 184.20 682.70 184.20Q684.69 184.20 685.86 185.42Q687.04 186.65 687.04 188.76L687.04 197.64L684.88 197.64L684.88 189.14Q684.88 187.63 684.12 186.83Q683.37 186.02 682.07 186.02Q680.73 186.02 679.95 186.86Q679.17 187.70 679.17 189.24" fill="white" fill-opacity="0.7"/>
<path d="M701.56 197.64L697.72 197.64Q696.09 197.64 695.10 196.69Q694.12 195.74 694.12 194.16L694.12 186.41L690.33 186.41L690.33 184.44L694.12 184.44L694.12 180.72L696.28 180.72L696.28 184.44L701.68 184.44L701.68 186.41L696.28 186.41L696.28 194.16Q696.28 194.83 696.68 195.25Q697.07 195.67 697.72 195.67L701.56 195.67" fill="white" fill-opacity="0.7"/>
<path d="M725.32 197.64L723.16 197.64L723.16 188.21L719.32 188.21L719.32 186.24L723.16 186.24L723.16 183.48Q723.16 181.92 724.14 181.02Q725.13 180.12 726.86 180.12L730.72 180.12L730.72 182.09L726.86 182.09Q725.32 182.09 725.32 183.48L725.32 186.24L730.72 186.24L730.72 188.21L725.32 188.21" fill="white" fill-opacity="0.7"/>
<path d="M739.60 197.83Q737.22 197.83 735.82 196.44Q734.42 195.05 734.42 192.55L734.42 189.53Q734.42 187.01 735.81 185.63Q737.20 184.25 739.60 184.25Q742 184.25 743.39 185.63Q744.78 187.01 744.78 189.53L744.78 192.55Q744.78 195.05 743.38 196.44Q741.98 197.83 739.60 197.83M739.60 195.91Q741.02 195.91 741.82 195.12Q742.62 194.33 742.62 192.79L742.62 189.29Q742.62 187.75 741.82 186.96Q741.02 186.17 739.60 186.17Q738.21 186.17 737.39 186.96Q736.58 187.75 736.58 189.29L736.58 192.79Q736.58 194.33 737.39 195.12Q738.21 195.91 739.60 195.91" fill="white" fill-opacity="0.7"/>
<path d="M751.65 197.64L749.49 197.64L749.49 184.44L751.65 184.44L751.65 186.96L751.70 186.96Q751.86 185.69 752.78 184.94Q753.69 184.20 755.22 184.20Q757.29 184.20 758.40 185.44Q759.52 186.67 759.52 188.95L759.52 190.08L757.36 190.08L757.36 188.95Q757.36 186.07 754.55 186.07Q753.14 186.07 752.39 186.89Q751.65 187.70 751.65 189.24" fill="white" fill-opacity="0.7"/>
<path d="M781.65 197.88Q779.61 197.88 778.41 196.74Q777.21 195.60 777.21 193.75Q777.21 192.53 777.76 191.62Q778.31 190.70 779.30 190.19Q780.28 189.67 781.55 189.67L785.63 189.67L785.63 188.64Q785.63 186.07 782.82 186.07Q781.58 186.07 780.81 186.53Q780.04 186.98 779.99 187.80L777.83 187.80Q777.95 186.24 779.28 185.22Q780.62 184.20 782.82 184.20Q785.22 184.20 786.51 185.35Q787.79 186.50 787.79 188.57L787.79 197.64L785.66 197.64L785.66 195.24L785.61 195.24Q785.42 196.46 784.38 197.17Q783.35 197.88 781.65 197.88M782.18 196.06Q783.76 196.06 784.70 195.29Q785.63 194.52 785.63 193.20L785.63 191.35L781.79 191.35Q780.74 191.35 780.08 191.99Q779.42 192.62 779.42 193.68Q779.42 194.78 780.15 195.42Q780.88 196.06 782.18 196.06" fill="white" fill-opacity="0.7"/>
<path d="M797.39 197.88Q794.99 197.88 793.55 196.54Q792.11 195.19 792.11 192.84L792.11 189.24Q792.11 186.89 793.55 185.54Q794.99 184.20 797.39 184.20Q799.67 184.20 801.08 185.42Q802.48 186.65 802.55 188.76L800.39 188.76Q800.32 187.49 799.53 186.80Q798.74 186.12 797.39 186.12Q795.98 186.12 795.12 186.92Q794.27 187.73 794.27 189.22L794.27 192.84Q794.27 194.33 795.12 195.14Q795.98 195.96 797.39 195.96Q798.74 195.96 799.53 195.26Q800.32 194.57 800.39 193.32L802.55 193.32Q802.48 195.43 801.08 196.66Q799.67 197.88 797.39 197.88" fill="white" fill-opacity="0.7"/>
<path d="M816.59 201.96L814.43 201.96L814.43 198.12L814.48 195.12L814.41 195.12Q814.24 196.39 813.28 197.14Q812.32 197.88 810.83 197.88Q808.84 197.88 807.66 196.56Q806.49 195.24 806.49 192.96L806.49 189.10Q806.49 186.82 807.68 185.51Q808.86 184.20 810.83 184.20Q812.32 184.20 813.28 184.93Q814.24 185.66 814.41 186.96L814.43 186.96L814.43 184.44L816.59 184.44L816.59 201.96M811.55 196.01Q812.90 196.01 813.66 195.17Q814.43 194.33 814.43 192.84L814.43 189.24Q814.43 187.75 813.66 186.91Q812.90 186.07 811.55 186.07Q810.18 186.07 809.42 186.77Q808.65 187.46 808.65 189L808.65 193.08Q808.65 194.62 809.42 195.31Q810.18 196.01 811.55 196.01" fill="white" fill-opacity="0.7"/>
<path d="M825.98 197.88Q823.70 197.88 822.33 196.52Q820.96 195.17 820.96 192.84L820.96 184.44L823.12 184.44L823.12 192.84Q823.12 194.28 823.89 195.13Q824.66 195.98 825.98 195.98Q827.32 195.98 828.10 195.13Q828.88 194.28 828.88 192.84L828.88 184.44L831.04 184.44L831.04 192.84Q831.04 195.17 829.65 196.52Q828.26 197.88 825.98 197.88" fill="white" fill-opacity="0.7"/>
<path d="M846.52 197.64L835.24 197.64L835.24 195.67L839.92 195.67L839.92 186.41L835.72 186.41L835.72 184.44L842.08 184.44L842.08 195.67L846.52 195.67L846.52 197.64M840.76 182.06Q839.97 182.06 839.51 181.66Q839.06 181.25 839.06 180.55Q839.06 179.83 839.51 179.41Q839.97 178.99 840.76 178.99Q841.55 178.99 842.01 179.41Q842.46 179.83 842.46 180.55Q842.46 181.25 842.01 181.66Q841.55 182.06 840.76 182.06" fill="white" fill-opacity="0.7"/>
<path d="M852.45 197.64L850.29 197.64L850.29 184.44L852.45 184.44L852.45 186.96L852.50 186.96Q852.66 185.69 853.58 184.94Q854.49 184.20 856.02 184.20Q858.09 184.20 859.20 185.44Q860.32 186.67 860.32 188.95L860.32 190.08L858.16 190.08L858.16 188.95Q858.16 186.07 855.35 186.07Q853.94 186.07 853.19 186.89Q852.45 187.70 852.45 189.24" fill="white" fill-opacity="0.7"/>
<path d="M869.20 197.88Q866.87 197.88 865.44 196.48Q864.02 195.07 864.02 192.60L864.02 189.48Q864.02 187.01 865.44 185.60Q866.87 184.20 869.20 184.20Q870.76 184.20 871.92 184.82Q873.09 185.45 873.74 186.58Q874.38 187.70 874.38 189.24L874.38 191.59L866.13 191.59L866.13 192.84Q866.13 194.30 866.97 195.16Q867.81 196.01 869.20 196.01Q870.40 196.01 871.18 195.54Q871.96 195.07 872.13 194.28L874.29 194.28Q874.07 195.94 872.68 196.91Q871.29 197.88 869.20 197.88M866.13 189.24L866.13 189.91L872.27 189.91L872.27 189.24Q872.27 187.68 871.47 186.83Q870.66 185.98 869.20 185.98Q867.74 185.98 866.93 186.83Q866.13 187.68 866.13 189.24" fill="white" fill-opacity="0.7"/>
<path d="M881.25 197.64L879.09 197.64L879.09 184.44L881.25 184.44L881.25 186.96L881.30 186.96Q881.46 185.69 882.38 184.94Q883.29 184.20 884.82 184.20Q886.89 184.20 888 185.44Q889.12 186.67 889.12 188.95L889.12 190.08L886.96 190.08L886.96 188.95Q886.96 186.07 884.15 186.07Q882.74 186.07 881.99 186.89Q881.25 187.70 881.25 189.24" fill="white" fill-opacity="0.7"/>
<path d="M898.53 197.83L897.47 197.83Q895.26 197.83 894.05 196.84Q892.84 195.84 892.84 194.02L895 194.02Q895 194.93 895.65 195.44Q896.30 195.96 897.47 195.96L898.53 195.96Q899.73 195.96 900.39 195.43Q901.05 194.90 901.05 193.94Q901.05 192.24 899.49 192.02L895.84 191.50Q894.50 191.30 893.75 190.38Q893.01 189.46 893.01 187.94Q893.01 186.22 894.20 185.23Q895.38 184.25 897.47 184.25L898.53 184.25Q900.45 184.25 901.66 185.20Q902.87 186.14 902.97 187.68L900.78 187.68Q900.74 186.98 900.12 186.53Q899.51 186.07 898.53 186.07L897.47 186.07Q896.37 186.07 895.74 186.58Q895.12 187.08 895.12 187.94Q895.12 189.34 896.39 189.53L899.80 190.01Q903.16 190.49 903.16 193.94Q903.16 195.79 901.95 196.81Q900.74 197.83 898.53 197.83" fill="white" fill-opacity="0.7"/>
<path d="M912.40 197.88Q911.51 197.88 910.97 197.35Q910.43 196.82 910.43 195.98Q910.43 195.10 910.97 194.54Q911.51 193.99 912.40 193.99Q913.29 193.99 913.83 194.54Q914.37 195.10 914.37 195.98Q914.37 196.82 913.83 197.35Q913.29 197.88 912.40 197.88" fill="white" fill-opacity="0.7"/>
<path d="M77.55 136.06L68.53 136.06L68.53 65.98L81.97 65.98L90.61 96.22L99.63 65.98L113.17 65.98L113.17 136.06L104.05 136.06L104.05 103.90Q104.05 98.81 104.24 92.62Q104.43 86.43 104.77 80.24Q105.10 74.04 105.49 69.05L94.54 104.96L86.48 104.96L75.92 69.92Q76.78 76.92 77.17 85.52Q77.55 94.11 77.55 103.90L77.55 136.06M133.71 136.06L124.02 136.06L142.16 65.98L154.74 65.98L172.78 136.06L163.09 136.06L158.67 117.82L138.13 117.82L133.71 136.06M145.14 88.92L140.05 109.95L156.75 109.95L151.76 89.02Q150.32 83.26 149.46 79.23Q148.59 75.20 148.40 73.76Q148.21 75.20 147.34 79.23Q146.48 83.26 145.14 88.92M206.38 137.02Q196.02 137.02 189.87 131.60Q183.73 126.17 183.73 116.67L193.23 116.67Q193.23 122.24 196.78 125.40Q200.34 128.57 206.38 128.57Q212.14 128.57 215.55 125.36Q218.96 122.14 218.96 116.76Q218.96 112.73 216.75 109.71Q214.54 106.68 210.51 105.63L200.14 102.84Q193.33 100.92 189.34 95.88Q185.36 90.84 185.36 83.93Q185.36 78.27 187.90 74Q190.45 69.72 195.06 67.37Q199.66 65.02 205.71 65.02Q211.86 65.02 216.51 67.37Q221.17 69.72 223.76 73.95Q226.35 78.17 226.35 83.74L216.94 83.74Q216.94 79.13 213.82 76.25Q210.70 73.37 205.71 73.37Q200.72 73.37 197.70 76.25Q194.67 79.13 194.67 83.74Q194.67 87.48 196.69 90.03Q198.70 92.57 202.35 93.63L213.01 96.51Q220.21 98.43 224.24 103.85Q228.27 109.28 228.27 116.76Q228.27 122.91 225.58 127.47Q222.90 132.03 217.95 134.52Q213.01 137.02 206.38 137.02M268.40 136.06L258.90 136.06L258.90 74.62L239.89 74.62L239.89 65.98L287.31 65.98L287.31 74.62L268.40 74.62L268.40 136.06M342.51 136.06L301.71 136.06L301.71 65.98L342.51 65.98L342.51 74.52L311.12 74.52L311.12 95.36L339.15 95.36L339.15 103.61L311.12 103.61L311.12 127.52L342.51 127.52L342.51 136.06M367.95 136.06L358.54 136.06L358.54 65.98L380.24 65.98Q386.67 65.98 391.47 68.52Q396.27 71.07 398.96 75.63Q401.65 80.19 401.65 86.33Q401.65 93.44 398.05 98.52Q394.45 103.61 388.50 105.72L402.61 136.06L392.14 136.06L378.80 106.78L367.95 106.78L367.95 136.06M367.95 74.43L367.95 98.33L380.24 98.33Q385.62 98.33 388.74 95.07Q391.86 91.80 391.86 86.43Q391.86 80.96 388.69 77.69Q385.52 74.43 380.24 74.43L367.95 74.43M437.17 137.02Q427.47 137.02 421.76 131.60Q416.05 126.17 416.05 116.67L416.05 85.28Q416.05 75.87 421.76 70.44Q427.47 65.02 437.17 65.02Q446.77 65.02 452.48 70.49Q458.19 75.96 458.19 85.28L448.69 85.28Q448.69 79.61 445.62 76.54Q442.54 73.47 437.17 73.47Q431.70 73.47 428.62 76.54Q425.55 79.61 425.55 85.28L425.55 116.67Q425.55 122.43 428.62 125.50Q431.70 128.57 437.17 128.57Q442.54 128.57 445.62 125.50Q448.69 122.43 448.69 116.67L458.19 116.67Q458.19 126.08 452.48 131.55Q446.77 137.02 437.17 137.02M479.31 136.06L469.62 136.06L487.76 65.98L500.34 65.98L518.38 136.06L508.69 136.06L504.27 117.82L483.73 117.82L479.31 136.06M490.74 88.92L485.65 109.95L502.35 109.95L497.36 89.02Q495.92 83.26 495.06 79.23Q494.19 75.20 NaN 73.76Q493.81 75.20 492.94 79.23Q492.08 83.26 490.74 88.92M540.75 136.06L531.34 136.06L531.34 65.98L553.04 65.98Q559.47 65.98 564.27 68.52Q569.07 71.07 571.76 75.63Q574.45 80.19 574.45 86.33Q574.45 93.44 570.85 98.52Q567.25 103.61 561.30 105.72L575.41 136.06L564.94 136.06L551.60 106.78L540.75 106.78L540.75 136.06M540.75 74.43L540.75 98.33L553.04 98.33Q558.42 98.33 561.54 95.07Q564.66 91.80 564.66 86.43Q564.66 80.96 561.49 77.69Q558.32 74.43 553.04 74.43L540.75 74.43M607.66 136.06L588.85 136.06L588.85 65.98L607.66 65.98Q614.48 65.98 619.52 68.62Q624.56 71.26 627.34 76.01Q630.13 80.76 630.13 87.20L630.13 114.75Q630.13 121.18 627.34 125.98Q624.56 130.78 619.52 133.42Q614.48 136.06 607.66 136.06M598.35 74.43L598.35 127.61L607.66 127.61Q613.71 127.61 617.17 124.16Q620.62 120.70 620.62 114.75L620.62 87.20Q620.62 81.24 617.17 77.84Q613.71 74.43 607.66 74.43L598.35 74.43M711.15 136.06L702.13 136.06L702.13 65.98L715.57 65.98L724.21 96.22L733.23 65.98L746.77 65.98L746.77 136.06L737.65 136.06L737.65 103.90Q737.65 98.81 737.84 92.62Q738.03 86.43 738.37 80.24Q738.70 74.04 739.09 69.05L728.14 104.96L720.08 104.96L709.52 69.92Q710.38 76.92 710.77 85.52Q711.15 94.11 711.15 103.90L711.15 136.06M767.31 136.06L757.62 136.06L775.76 65.98L788.34 65.98L806.38 136.06L796.69 136.06L792.27 117.82L771.73 117.82L767.31 136.06M778.74 88.92L773.65 109.95L790.35 109.95L785.36 89.02Q783.92 83.26 783.06 79.23Q782.19 75.20 NaN 73.76Q781.81 75.20 780.94 79.23Q780.08 83.26 778.74 88.92M844.40 136.06L834.90 136.06L834.90 74.62L815.89 74.62L815.89 65.98L863.31 65.98L863.31 74.62L844.40 74.62L844.40 136.06M897.97 137.02Q888.27 137.02 882.56 131.60Q876.85 126.17 876.85 116.67L876.85 85.28Q876.85 75.87 882.56 70.44Q888.27 65.02 897.97 65.02Q907.57 65.02 913.28 70.49Q918.99 75.96 918.99 85.28L909.49 85.28Q909.49 79.61 906.42 76.54Q903.34 73.47 897.97 73.47Q892.50 73.47 889.42 76.54Q886.35 79.61 886.35 85.28L886.35 116.67Q886.35 122.43 889.42 125.50Q892.50 128.57 897.97 128.57Q903.34 128.57 906.42 125.50Q909.49 122.43 909.49 116.67L918.99 116.67Q918.99 126.08 913.28 131.55Q907.57 137.02 897.97 137.02M944.05 136.06L934.54 136.06L934.54 65.98L944.05 65.98L944.05 95.55L965.55 95.55L965.55 65.98L975.06 65.98L975.06 136.06L965.55 136.06L965.55 104.19L944.05 104.19" fill="url(#paint2_linear_0_1)"/>
<g id="Group 1">
<rect id="Rectangle 1" x="26" y="168" width="12" height="184" rx="5" fill="url(#paint3_linear_0_1)" fill-opacity="0.9"/>
</g>
<g id="Group 1_2">
<rect id="Rectangle 2" x="26" y="38" width="12" height="119" rx="5" fill="url(#paint4_linear_0_1)" fill-opacity="0.9"/>
</g>
<ellipse id="Ellipse 1" cx="148.5" cy="573" rx="215.5" ry="214" fill="url(#paint5_linear_0_1)" fill-opacity="0.4"/>
<rect id="Rectangle 3" x="1229" y="48" width="300" height="300" rx="25" fill="#FFFBFB" fill-opacity="0.9"/>
<g id="placeholder-logo"><g transform="translate(1229,48) translate(0.0,60.0) scale(1.2000)"><g fill="#666666">
  <path d="m88.05,27.65c-3.15,4 -3.2,51.2 -0.05,54.35c2.75,2.75 71.7,3.15 74.45,0.45c2.85,-2.9 2.3,-53.85 -0.65,-55.9c-1.95,-1.35 -7.15,-1.55 -36.95,-1.55l-34.7,0l-2.1,2.65zm69.45,3.35c0.65,0 1,8.6 1,23.75l0,23.75l-33,0l-33,0l-0.25,-23c-0.15,-12.6 -0.1,-23.45 0.15,-24.1c0.35,-0.85 8.9,-1.05 32.25,-0.75c17.55,0.2 32.3,0.35 32.85,0.35z"/>
  <path d="m99.15,37.3c-6.85,7.35 4.25,17.35 11.4,10.25c1.35,-1.35 2.45,-3.65 2.45,-5.05c0,-6.45 -9.35,-9.95 -13.85,-5.2z"/>
  <path d="m135,42.5c-0.7,0.85 -5.25,5.15 -10.1,9.6l-8.85,8.1l-3.2,-3.2l-3.15,-3.15l-6.35,6.3c-5.55,5.5 -6.35,6.75 -6.35,10.05l0,3.8l28.5,0l28.5,0l0,-8.6l0,-8.55l-8.15,-7.7c-9.35,-8.85 -9.15,-8.7 -10.85,-6.65zm7.25,15.2c0.95,0.9 1.75,2.9 1.75,4.45c6.35,-5.05 4.75,-7.15 4.9,-11.55c0.95,0 0,0 0,0l-6.65,7.1z"/>
  <path d="m53.65,110.75c0.1,4.8 0.45,8.65 0.75,8.5c0.35,-0.15 1.3,-0.25 2.1,-0.25c1.1,0 1.5,-1.2 1.5,-4.75l0,-4.75l3.25,5c4.9,7.5 6.2,6.75 6.55,-3.75c0.25,-8.15 0.15,-8.75 -1.7,-8.75c-1.65,0 -2.05,0.8 -2.3,4.75l-0.3,4.75l-2.8,-4.75c-4.85,-8.25 -7.25,-6.9 -7.05,4z"/>
  <path d="m91,108.9c0,9.65 0.3,10.1 6.1,10.1c5.8,0 7.15,-2.65 1.65,-3.2l-3.25,-0.3l-0.3,-6.75c-0.25,-5.95 -0.55,-6.75 -2.25,-6.75c-1.75,0 -1.95,0.7 -1.95,6.9z"/>
  <path d="m151,102.45c0,0.25 1,2.15 2.25,4.2c1.2,2.1 2.45,5.8 2.75,8.25c0.65,5.9 4,6.95 4,1.25c0.05,-2.1 1.25,-5.85 2.95,-8.9l2.9,-5.25l-2.5,0c-1.8,0 -2.8,0.85 -3.75,3.1l-1.3,3.05l-1.25,-3.05c-1.1,-2.6 -6.05,-4.8 -6.05,-2.65z"/>
  <path d="m191,107.45c0,9.05 3.4,8.85 4.25,-0.2c0.45,-5 0.35,-5.25 -1.9,-5.25c-2.2,0 -2.35,0.4 -2.35,5.45z"/>
  <path d="m180.8,104.75c-1.3,5.35 0.65,13.6 3.45,14.35c2.3,0.6 2.75,0.4 2.75,-1.2c0,-1.05 -0.45,-1.9 -1,-1.9c-0.55,0 -1,-1.6 -1,-3.5c0,-1.95 0.45,-3.5 1,-3.5c0.55,0 1,-0.7 1,-1.5c0,-0.85 -0.45,-1.5 -1,-1.5c-0.55,0 -1,-0.7 -1,-1.5c0,-2.1 -3.65,-1.9 -4.2,0.25z"/>
  <path d="m71.55,106.55c-2.2,2.25 -2.05,9.7 0.3,11.8c4.5,4.1 10.15,0.75 10.15,-6.1c0,-4.85 -2,-7.25 -6,-7.25c-1.55,0 -3.55,0.7 -4.45,1.55zm6.25,5.8c0.25,3.05 0,3.65 -1.6,3.65c-2.3,0 -3.25,-2.65 -2.05,-5.85c1.25,-3.35 3.3,-2.1 3.65,2.2z"/>
  <path d="m105.75,106.1c-2.5,1.45 -2.45,9.95 0.1,12.25c4.3,3.9 10.15,0.35 10.15,-6.2c0,-6 -5.15,-9.05 -10.25,-6.05zm6.05,6.25c0.25,3.05 0,3.65 -1.6,3.65c-2.3,0 -3.25,-2.65 -2.05,-5.85c1.25,-3.35 3.3,-2.1 3.65,2.2z"/>
  <path d="m119.2,106.2c-3.8,3.8 -0.4,12.55 4.4,11.35c1.9,-0.45 2.45,-0.3 2.15,0.65c-0.25,0.7 -1.55,1.2 -2.85,1.1c-4.05,-0.3 -5.35,0.45 -3.85,2.25c0.85,1.05 2.6,1.45 5.35,1.25l4.1,-0.3l0.3,-8.75l0.3,-8.75l-4.35,0c-2.4,0 -4.9,0.55 -5.55,1.2zm6.6,4.45c0.4,2.85 -2.15,4.85 -3.75,2.95c-0.9,-1.1 -0.9,-2 -0.05,-3.6c1.35,-2.5 3.4,-2.15 3.8,0.65z"/>
  <path d="m133.55,106.55c-2.2,2.25 -2.05,9.7 0.3,11.8c4.5,4.1 10.15,0.75 10.15,-6.1c0,-4.85 -2,-7.25 -6,-7.25c-1.55,0 -3.55,0.7 -4.45,1.55zm6.25,5.8c0.25,3.05 0,3.65 -1.6,3.65c-2.3,0 -3.25,-2.65 -2.05,-5.85c1.25,-3.35 3.3,-2.1 3.65,2.2z"/>
  <path d="m167.65,106.85c-3.9,4.3 -0.75,13.15 4.7,13.15c2.4,0 5.65,-2.75 5.65,-4.85c0,-1.4 -2.65,-1.55 -3.5,-0.15c-0.95,1.55 -4.5,1.15 -4.5,-0.5c0,-1.1 1.1,-1.5 4,-1.5c3.15,0 4,-0.35 4,-1.8c0,-5.3 -6.85,-8.25 -10.35,-4.35z"/>
  <path d="m191,117.5c0,2.15 0.4,2.6 2.25,2.3c1.5,-0.2 2.25,-1 2.25,-2.3c0,-1.3 -0.75,-2.1 -2.25,-2.3c-1.85,-0.3 -2.25,0.15 -2.25,2.3z"/>
 </g></g></g>
</g>
<defs>
<linearGradient id="paint0_linear_0_1" x1="0" y1="198" x2="1584" y2="198" gradientUnits="userSpaceOnUse">
<stop stop-color="#3D052C"/>
<stop offset="1"/>
</linearGradient>
<linearGradient id="paint1_linear_0_1" x1="323" y1="-224" x2="323" y2="352" gradientUnits="userSpaceOnUse">
<stop stop-color="#28F6F2" stop-opacity="0.4"/>
<stop offset="1" stop-color="#17908E" stop-opacity="0.7"/>
</linearGradient>
<linearGradient id="paint2_linear_0_1" x1="148.5" y1="38" x2="148.5" y2="140" gradientUnits="userSpaceOnUse">
<stop stop-color="white"/>
<stop offset="1" stop-color="#999999"/>
</linearGradient>
<linearGradient id="paint3_linear_0_1" x1="38" y1="260" x2="26" y2="260" gradientUnits="userSpaceOnUse">
<stop stop-color="#D9D9D9"/>
<stop offset="1" stop-color="#737373"/>
</linearGradient>
<linearGradient id="paint4_linear_0_1" x1="38" y1="97.5" x2="26" y2="97.5" gradientUnits="userSpaceOnUse">
<stop stop-color="#D9D9D9"/>
<stop offset="1" stop-color="#737373"/>
</linearGradient>
<linearGradient id="paint5_linear_0_1" x1="27.5" y1="434.5" x2="148.5" y2="787" gradientUnits="userSpaceOnUse">
<stop stop-color="#2E21BC"/>
<stop offset="1" stop-color="#150F56"/>
</linearGradient>
<clipPath id="clip0_0_1">
<rect width="1584" height="396" fill="white"/>
</clipPath>
</defs>
</svg>
